Name: A lady without Camellias
Original title: La signora senza camelie (The Lady Without Camelias)
Released: 1953
Country: France, Italy
Genre: drama
Director: Michelangelo Antonioni / Michelangelo Antonioni
Cast: Lucia Bose, Gino Worms, Andrea Kekki, Ivan Gums, Monica Clay, Alain Cuny, Anna Karen, Enrico Glori, Laura Tiberti, Oscar Andriana, Gisella Sofio, Elio Steiner, Luisa Rivelli, Nino Dal Fabbri, Emma Dretti, Rita Giannuzzi, Rita Mara, Lila Rocco, Nuri Neva Sangro, Xenia Walder

About movie: The central character - a film producer. Turning saleswoman in a movie star, he completes the act, giving her in marriage. Twisted in the clouds, the heroine of her husband's demands that he shot her in the role of stars in the "high cinema" rather than in through-erotic films as before. When the film fails to be falling apart and the marriage.

File info:
Quality: BDRip 1080p
Duration: 1:41:33
Audio: Russian ;  Italian track
Subtitles: Russian, English
Format: MKV

Video: MPEG-4 AVC, 12.9 Mbps, 1440x1080p, 24 fps, 4:3, High Profile 4.1
Audio 1: Dolby Digital 2.0, 48 kHz, 192 kbps
Audio 2: DTS 2.0, 48 kHz, 512 kbps, 16-bit


Format / Info: Advanced Video Codec
Format profile: High@L4.1
Format settings, CABAC: Yes
Format settings, ReFrames: 5 frames
Muxing mode: Container profile = Unknown@4.1
Codec ID: V_MPEG4/ISO/AVC
Duration: 1h 41mn
Bit rate: 12.9 Mbps
Width: 1440 pixels
Height: 1080 pixels
Display aspect ratio: 4:3
Frame rate: 24.000 fps

Audio # 1
ID: 2
Format: AC-3
Format / Info: Audio Coding 3
Mode extension: CM (complete main)
Codec ID: A_AC3
Duration: 1h 41mn
Bit rate mode: Constant
Bit rate: 192 Kbps
Channel (s): 2 channels
Channel positions: Front: L R
Sampling rate: 48.0 KHz
Bit depth: 16 bits
Stream size: 139 MiB (1%)
Title: VO (renege79)
Language: Russian

Audio # 2
ID: 3
Format: DTS
Format / Info: Digital Theater Systems
Codec ID: A_DTS
Duration: 1h 41mn
Bit rate mode: Constant
Bit rate: 512 Kbps
Channel (s): 2 channels
Channel positions: Front: L R
Sampling rate: 48.0 KHz
Bit depth: 24 bits
Stream size: 372 MiB (4%)
Title: Original
Language: Italian